<?xml version="1.0" encoding="UTF-8"?>
<svg version="1.1" xmlns="http://www.w3.org/2000/svg" width="72" height="72">
<path d="M0 0 C2.51279572 0.02902851 5.02348422 0.02056819 7.53637695 0.00756836 C9.15552768 0.0138056 10.77467185 0.02219644 12.39379883 0.03295898 C13.13360489 0.03002335 13.87341095 0.02708771 14.63563538 0.02406311 C22.85587511 0.17068784 29.08076728 2.73147686 34.95239258 8.46655273 C38.97717327 14.15675992 39.12829843 19.29001867 39.19067383 26.10717773 C39.19874557 26.94819031 39.20681732 27.78920288 39.21513367 28.65570068 C39.2289447 30.4342647 39.23968014 32.21285489 39.24755859 33.99145508 C39.25906954 35.80110498 39.2795074 37.61072118 39.30908203 39.42016602 C39.35196281 42.04523617 39.36795585 44.66929988 39.37817383 47.29467773 C39.39568192 48.09391663 39.41319 48.89315552 39.43122864 49.71661377 C39.40609571 56.30827503 37.49978545 61.40495294 33.26879883 66.48999023 C23.71848415 73.84947549 10.51361405 72.78786263 -0.98510742 72.71655273 C-2.2593457 72.72428711 -3.53358398 72.73202148 -4.84643555 72.73999023 C-6.0768457 72.73741211 -7.30725586 72.73483398 -8.57495117 72.73217773 C-9.67572998 72.72992188 -10.77650879 72.72766602 -11.91064453 72.7253418 C-15.24911433 72.44992908 -17.92174269 71.64405763 -21.04760742 70.46655273 C-22.05823242 70.11592773 -23.06885742 69.76530273 -24.11010742 69.40405273 C-28.28324902 66.65155509 -30.20823875 63.06131034 -32.04760742 58.46655273 C-33.37604882 51.95742544 -33.23365482 45.44677933 -33.23291016 38.83642578 C-33.23509075 36.6706153 -33.25326459 34.50531986 -33.2722168 32.33959961 C-33.35544835 12.64066175 -33.35544835 12.64066175 -26.82836914 5.95776367 C-18.92665692 -0.65913491 -9.77022573 -0.12333488 0 0 Z " fill="#DA3B31" transform="translate(33.047607421875,-0.466552734375)"/>
<path d="M0 0 C4.49759133 7.02748646 5.31010292 13.74830698 4 22 C2.49277417 25.01445166 0.80791328 27.12591109 -2 29 C-5.70567413 30.20853027 -9.11393134 30.34088322 -13 30 C-16.03560696 28.17863582 -17.60600091 26.68054389 -19.375 23.625 C-20.40663513 19.29213245 -19.86894212 16.46829554 -17.58984375 12.6171875 C-16.10389895 10.37597525 -14.58065334 8.17521102 -13 6 C-12.67 6.66 -12.34 7.32 -12 8 C-12.93446535 10.03144641 -13.93224776 12.03533587 -15 14 C-14.34 14 -13.68 14 -13 14 C-13 13.01 -13 12.02 -13 11 C-12.34 11 -11.68 11 -11 11 C-10.731875 10.360625 -10.46375 9.72125 -10.1875 9.0625 C-9 7 -9 7 -6 6 C-6 4.68 -6 3.36 -6 2 C-3 0 -3 0 0 0 Z " fill="#FB833D" transform="translate(46,28)"/>
<path d="M0 0 C0.99 0 1.98 0 3 0 C3 0.66 3 1.32 3 2 C3.99 2.33 4.98 2.66 6 3 C7.58965571 5.21701147 8.72327486 7.57862473 10 10 C8.35 10.99 6.7 11.98 5 13 C5.33 14.32 5.66 15.64 6 17 C5.195625 17.28875 4.39125 17.5775 3.5625 17.875 C0.8673532 18.73262568 0.8673532 18.73262568 0 21 C-0.66 21 -1.32 21 -2 21 C-2 21.99 -2 22.98 -2 24 C-2.66 24 -3.32 24 -4 24 C-3.835 23.38125 -3.67 22.7625 -3.5 22.125 C-2.92365356 20.03936614 -2.92365356 20.03936614 -3 18 C-6.77547625 24.30798164 -6.77547625 24.30798164 -7.9375 31.375 C-7.10475879 33.70667539 -6.23705461 35.855772 -5 38 C-9.38855677 36.27592413 -11.91486937 33.17026127 -14 29 C-14.79211353 20.9417681 -13.51502796 13.77254194 -9 7 C-5.875 6.8125 -5.875 6.8125 -3 7 C-2.01 4.69 -1.02 2.38 0 0 Z " fill="#F36A38" transform="translate(35,18)"/>
<path d="M0 0 C2.21859848 5.2691714 2.77271763 10.35916128 2 16 C0.375 18.625 0.375 18.625 -2 20 C-5 20.5 -5 20.5 -8 20 C-10.62316667 18.08579729 -11.74836336 16.63747948 -12.9375 13.625 C-13.02105809 10.11556042 -11.74017411 7.99309947 -10 5 C-9.34 5 -8.68 5 -8 5 C-7.67 4.01 -7.34 3.02 -7 2 C-4.39757586 0.35179805 -3.13751221 0 0 0 Z " fill="#FEB138" transform="translate(44,37)"/>
<path d="M0 0 C0.33 0 0.66 0 1 0 C1.8615105 5.59981826 -0.31349967 8.46721651 -3.40625 12.84375 C-4.68048125 14.56770993 -5.96374453 16.28499271 -7.25 18 C-9.50330357 21.86280612 -10.26113922 25.62516643 -11 30 C-11.66 30 -12.32 30 -13 30 C-15.53405551 24.93188897 -14.31029321 18.25456494 -12.625 13.0625 C-11.63982055 10.32091475 -10.64757382 8.47136073 -9 6 C-5.875 5.8125 -5.875 5.8125 -3 6 C-2.01 4.02 -1.02 2.04 0 0 Z " fill="#E05E3A" transform="translate(35,19)"/>
<path d="M0 0 C2.51279572 0.02902851 5.02348422 0.02056819 7.53637695 0.00756836 C9.15552768 0.0138056 10.77467185 0.02219644 12.39379883 0.03295898 C13.13360489 0.03002335 13.87341095 0.02708771 14.63563538 0.02406311 C19.98083393 0.11940562 24.0310894 1.37466081 28.95239258 3.46655273 C26.07764182 4.90392811 24.10871614 4.00246328 20.95239258 3.46655273 C18.27800007 3.36385744 15.63031346 3.3027595 12.95629883 3.29858398 C12.20452866 3.29525558 11.45275848 3.29192719 10.6782074 3.28849792 C9.09569913 3.28345865 7.51318034 3.28108867 5.93066406 3.28125 C3.52561773 3.27906249 1.1210299 3.26087235 -1.28393555 3.24194336 C-2.82885587 3.2390089 -4.37377835 3.23702445 -5.91870117 3.23608398 C-6.62933212 3.22889847 -7.33996307 3.22171295 -8.0721283 3.21430969 C-13.47184498 3.23871063 -18.65045797 3.78410895 -23.15698242 6.94702148 C-26.95203408 10.89568238 -29.24752202 14.27807129 -31.04760742 19.46655273 C-31.37760742 19.46655273 -31.70760742 19.46655273 -32.04760742 19.46655273 C-31.84683579 13.74456112 -31.06928289 10.21575066 -26.93164062 6.11499023 C-19.12422399 -0.71611992 -9.79346183 -0.1236282 0 0 Z " fill="#F28276" transform="translate(33.047607421875,-0.466552734375)"/>
<path d="M0 0 C0.66 0.33 1.32 0.66 2 1 C2.625 3.5625 2.625 3.5625 3 6 C2.01 6.33 1.02 6.66 0 7 C-1.88085618 9.33404316 -1.88085618 9.33404316 -3.625 12.1875 C-4.54152344 13.60095703 -4.54152344 13.60095703 -5.4765625 15.04296875 C-7.38836299 18.75382252 -8.53207712 21.98331608 -7.44140625 26.1171875 C-7.15136719 26.69726562 -6.86132812 27.27734375 -6.5625 27.875 C-6.046875 28.90625 -5.53125 29.9375 -5 31 C-7.88310908 29.70757179 -10.13631277 28.58907448 -12 26 C-11.54886158 17.5440465 -8.40472008 11.26120578 -3 5 C-1.96986723 3.35178756 -0.95289657 1.69403834 0 0 Z " fill="#D85B33" transform="translate(35,25)"/>
<path d="M0 0 C0.99 0.33 1.98 0.66 3 1 C3.08121924 2.60332791 3.13929134 4.20784026 3.1875 5.8125 C3.22230469 6.70582031 3.25710937 7.59914063 3.29296875 8.51953125 C3 11 3 11 1.65625 12.8125 C-0.60764557 14.43567041 -2.28307271 14.2202914 -5 14 C-5.875 10.9375 -5.875 10.9375 -6 7 C-4.32219519 4.32583725 -2.27898575 2.17329365 0 0 Z " fill="#FEC932" transform="translate(43,42)"/>
<path d="M0 0 C0.33 0.66 0.66 1.32 1 2 C0.01 3.485 0.01 3.485 -1 5 C-1.45770675 7.74341518 -1.83091338 10.42742471 -2.125 13.1875 C-2.21136719 13.93708984 -2.29773438 14.68667969 -2.38671875 15.45898438 C-2.59838382 17.30517412 -2.80015464 19.15249344 -3 21 C-5.0083701 19.12806808 -5.98076551 18.04928837 -7 15.4375 C-7 9.67462421 -4.0660339 4.0660339 0 0 Z " fill="#EA8342" transform="translate(33,34)"/>
<path d="M0 0 C0.99 0 1.98 0 3 0 C3 0.66 3 1.32 3 2 C3.99 2.33 4.98 2.66 6 3 C7.6875 5.5625 7.6875 5.5625 9 8 C4.25 11 4.25 11 2 11 C1.34 7.37 0.68 3.74 0 0 Z " fill="#F5503B" transform="translate(35,18)"/>
<path d="M0 0 C0.33 0.66 0.66 1.32 1 2 C0.2884375 2.61875 0.2884375 2.61875 -0.4375 3.25 C-2.26470719 5.29647205 -2.7660978 6.27114099 -3 9 C-2.57926181 12.17891717 -2.57926181 12.17891717 -1 15 C2.01779872 16.45160938 2.01779872 16.45160938 5 17 C5 17.33 5 17.66 5 18 C-1.625 18.25 -1.625 18.25 -5 16 C-5.8646862 11.26747017 -5.41375306 6.19230794 -3 2 C-2.01 1.34 -1.02 0.68 0 0 Z " fill="#F68D41" transform="translate(35,40)"/>
<path d="M0 0 C0.33 0.66 0.66 1.32 1 2 C0.4225 2.86625 -0.155 3.7325 -0.75 4.625 C-1.11351562 5.17285156 -1.47703125 5.72070312 -1.8515625 6.28515625 C-2.92573252 7.889104 -4.02450787 9.47649664 -5.125 11.0625 C-6.79451901 13.67807978 -7.97112968 16.08486743 -9 19 C-9.33 19 -9.66 19 -10 19 C-10.47183819 14.26381287 -8.93664328 11.36644443 -6.6875 7.25 C-6.07261719 6.10015625 -5.45773438 4.9503125 -4.82421875 3.765625 C-3 1 -3 1 0 0 Z " fill="#EE754E" transform="translate(33,26)"/>
<path d="M0 0 C1.32 0.33 2.64 0.66 4 1 C3.52949219 1.42410156 3.05898437 1.84820312 2.57421875 2.28515625 C-1.65538321 6.2695639 -4.09363611 9.50518644 -6 15 C-6.33 15 -6.66 15 -7 15 C-6.75648872 8.05992846 -4.93291958 4.82732192 0 0 Z " fill="#F77365" transform="translate(8,4)"/>
<path d="M0 0 C0 0.66 0 1.32 0 2 C-0.78375 2.0825 -1.5675 2.165 -2.375 2.25 C-5.11631339 2.70995268 -5.11631339 2.70995268 -6.125 4.875 C-6.41375 5.57625 -6.7025 6.2775 -7 7 C-7.515625 7.45375 -8.03125 7.9075 -8.5625 8.375 C-10.62278935 10.70402275 -10.6639317 12.97538534 -11 16 C-12.1875 14.4375 -12.1875 14.4375 -13 12 C-11.625 8.25 -11.625 8.25 -10 5 C-9.34 5 -8.68 5 -8 5 C-7.67 4.01 -7.34 3.02 -7 2 C-4.39757586 0.35179805 -3.13751221 0 0 0 Z " fill="#FD9C3B" transform="translate(44,37)"/>
<path d="M0 0 C0.99 0 1.98 0 3 0 C2.57405412 1.44096586 2.13373367 2.87768712 1.6875 4.3125 C1.44386719 5.11300781 1.20023438 5.91351563 0.94921875 6.73828125 C-0.04182023 9.09964573 -1.08074943 10.33879993 -3 12 C-3.34833144 7.12335991 -2.41685712 4.22949995 0 0 Z " fill="#F26F4D" transform="translate(25,26)"/>
<path d="M0 0 C0.33 0 0.66 0 1 0 C1 1.98 1 3.96 1 6 C-4.2734375 9.22265625 -4.2734375 9.22265625 -6 10 C-6.66 9.67 -7.32 9.34 -8 9 C-7.67 8.34 -7.34 7.68 -7 7 C-7.66 6.67 -8.32 6.34 -9 6 C-7.02 6 -5.04 6 -3 6 C-2.01 4.02 -1.02 2.04 0 0 Z " fill="#EE5B44" transform="translate(35,19)"/>
<path d="M0 0 C0.66 0.33 1.32 0.66 2 1 C2.625 3.5625 2.625 3.5625 3 6 C1.02 6.33 -0.96 6.66 -3 7 C-1.125 1.125 -1.125 1.125 0 0 Z " fill="#E15238" transform="translate(35,25)"/>
<path d="M0 0 C0.99 0 1.98 0 3 0 C3 0.66 3 1.32 3 2 C3.99 2.33 4.98 2.66 6 3 C5.01 3.495 5.01 3.495 4 4 C2.86649466 6.01669827 2.86649466 6.01669827 2 8 C1.67 8 1.34 8 1 8 C0.67 5.36 0.34 2.72 0 0 Z " fill="#EB3F3C" transform="translate(35,18)"/>
<path d="M0 0 C0.99 0.33 1.98 0.66 3 1 C1.37660195 2.70884005 -0.29319053 4.37446717 -2 6 C-2.66 6 -3.32 6 -4 6 C-4 5.34 -4 4.68 -4 4 C-3.34 4 -2.68 4 -2 4 C-1.34 2.68 -0.68 1.36 0 0 Z " fill="#F77A38" transform="translate(37,35)"/>
<path d="M0 0 C0.33 0 0.66 0 1 0 C0.4140625 6.15234375 0.4140625 6.15234375 0 8 C-0.99 8.495 -0.99 8.495 -2 9 C-1.125 1.125 -1.125 1.125 0 0 Z " fill="#F17F73" transform="translate(3,10)"/>
</svg>
